<svg width="48" height="27" viewBox="0 0 48 27" fill="none" xmlns="http://www.w3.org/2000/svg">
<path d="M11.29 26.468C8.09803 26.468 5.53003 25.208 3.58603 22.688C1.66603 20.12 0.706031 17.024 0.706031 13.4C0.706031 9.8 1.66603 6.716 3.58603 4.148C5.53003 1.604 8.09803 0.331998 11.29 0.331998C14.53 0.331998 17.098 1.604 18.994 4.148C20.938 6.692 21.91 9.776 21.91 13.4C21.91 17.048 20.938 20.144 18.994 22.688C17.098 25.208 14.53 26.468 11.29 26.468ZM11.29 22.76C13.282 22.76 14.89 21.86 16.114 20.06C17.338 18.26 17.95 16.04 17.95 13.4C17.95 10.76 17.338 8.54 16.114 6.74C14.89 4.94 13.282 4.04 11.29 4.04C9.32203 4.04 7.72603 4.952 6.50203 6.776C5.27803 8.576 4.66603 10.784 4.66603 13.4C4.66603 15.992 5.27803 18.212 6.50203 20.06C7.72603 21.86 9.32203 22.76 11.29 22.76ZM36.708 26.468C33.516 26.468 30.948 25.208 29.004 22.688C27.084 20.12 26.124 17.024 26.124 13.4C26.124 9.8 27.084 6.716 29.004 4.148C30.948 1.604 33.516 0.331998 36.708 0.331998C39.948 0.331998 42.516 1.604 44.412 4.148C46.356 6.692 47.328 9.776 47.328 13.4C47.328 17.048 46.356 20.144 44.412 22.688C42.516 25.208 39.948 26.468 36.708 26.468ZM36.708 22.76C38.7 22.76 40.308 21.86 41.532 20.06C42.756 18.26 43.368 16.04 43.368 13.4C43.368 10.76 42.756 8.54 41.532 6.74C40.308 4.94 38.7 4.04 36.708 4.04C34.74 4.04 33.144 4.952 31.92 6.776C30.696 8.576 30.084 10.784 30.084 13.4C30.084 15.992 30.696 18.212 31.92 20.06C33.144 21.86 34.74 22.76 36.708 22.76Z" fill="#F2F2F2"/>
</svg>
