<svg width="22" height="27" viewBox="0 0 22 27" fill="none" xmlns="http://www.w3.org/2000/svg">
<path d="M14.2113 26.468C10.4433 26.468 7.27531 25.244 4.70731 22.796C2.18731 20.324 0.927313 17.192 0.927313 13.4C0.927313 9.608 2.18731 6.488 4.70731 4.04C7.20331 1.568 10.3713 0.331998 14.2113 0.331998C16.7793 0.331998 19.0593 0.895998 21.0513 2.024V6.02C19.0113 4.7 16.7433 4.04 14.2473 4.04C11.6073 4.04 9.39931 4.928 7.62331 6.704C5.87131 8.456 4.99531 10.688 4.99531 13.4C4.99531 16.112 5.88331 18.356 7.65931 20.132C9.43531 21.884 11.6793 22.76 14.3913 22.76C17.2713 22.76 19.6713 21.992 21.5913 20.456V24.452C19.4793 25.796 17.0193 26.468 14.2113 26.468Z" fill="#F2F2F2"/>
</svg>
