<svg width="28" height="27" viewBox="0 0 28 27" fill="none" xmlns="http://www.w3.org/2000/svg">
<path d="M8.07195 26H5.04795L19.952 0.799998H22.94L8.07195 26ZM6.70395 0.331998C8.50395 0.331998 9.99195 0.919998 11.168 2.096C12.344 3.272 12.932 4.724 12.932 6.452C12.932 8.18 12.344 9.632 11.168 10.808C9.99195 11.96 8.50395 12.536 6.70395 12.536C4.95195 12.536 3.47595 11.96 2.27595 10.808C1.12395 9.608 0.547953 8.156 0.547953 6.452C0.547953 4.748 1.12395 3.296 2.27595 2.096C3.45195 0.919998 4.92795 0.331998 6.70395 0.331998ZM6.70395 9.908C7.68795 9.908 8.49195 9.584 9.11595 8.936C9.76395 8.264 10.088 7.436 10.088 6.452C10.088 5.444 9.77595 4.616 9.15195 3.968C8.52795 3.32 7.71195 2.996 6.70395 2.996C5.74395 2.996 4.95195 3.332 4.32795 4.004C3.70395 4.652 3.39195 5.468 3.39195 6.452C3.39195 7.436 3.70395 8.264 4.32795 8.936C4.95195 9.584 5.74395 9.908 6.70395 9.908ZM21.212 14.264C23.012 14.264 24.5 14.852 25.676 16.028C26.852 17.204 27.44 18.644 27.44 20.348C27.44 22.076 26.852 23.528 25.676 24.704C24.5 25.88 23.012 26.468 21.212 26.468C19.436 26.468 17.96 25.88 16.784 24.704C15.632 23.528 15.056 22.076 15.056 20.348C15.056 18.644 15.632 17.204 16.784 16.028C17.96 14.852 19.436 14.264 21.212 14.264ZM21.212 23.804C22.22 23.804 23.036 23.48 23.66 22.832C24.284 22.184 24.596 21.356 24.596 20.348C24.596 19.364 24.272 18.548 23.624 17.9C23 17.228 22.196 16.892 21.212 16.892C20.252 16.892 19.46 17.228 18.836 17.9C18.212 18.548 17.9 19.364 17.9 20.348C17.9 21.332 18.212 22.16 18.836 22.832C19.46 23.48 20.252 23.804 21.212 23.804Z" fill="#F2F2F2"/>
</svg>
